<?xml version="1.0" encoding="us-ascii" standalone="no"?><svg xmlns="http://www.w3.org/2000/svg" xmlns:xlink="http://www.w3.org/1999/xlink" contentStyleType="text/css" height="236px" preserveAspectRatio="none" style="width:188px;height:236px;background:#FFFFFF;" version="1.1" viewBox="0 0 188 236" width="188px" zoomAndPan="magnify"><defs/><g><!--class BagInterface--><g id="elem_BagInterface"><rect codeLine="1" fill="#F1F1F1" height="215.5898" id="BagInterface" rx="2.5" ry="2.5" style="stroke:#181818;stroke-width:0.5;" width="167" x="7" y="7"/><ellipse cx="46.3" cy="23" fill="#B4A7E5" rx="11" ry="11" style="stroke:#181818;stroke-width:1.0;"/><path d="M47.2531,19.6406 L47.2531,26.2969 L48.9719,26.2969 Q49.5813,26.2969 49.8469,26.5313 Q50.1125,26.7656 50.1125,27.1563 Q50.1125,27.5313 49.8469,27.7656 Q49.5813,28 48.9719,28 L43.8313,28 Q43.2219,28 42.9563,27.7656 Q42.6906,27.5313 42.6906,27.1406 Q42.6906,26.7656 42.9563,26.5313 Q43.2219,26.2969 43.8313,26.2969 L45.55,26.2969 L45.55,19.6406 L43.8313,19.6406 Q43.2219,19.6406 42.9563,19.4063 Q42.6906,19.1719 42.6906,18.7813 Q42.6906,18.4063 42.9563,18.1719 Q43.2219,17.9375 43.8313,17.9375 L48.9719,17.9375 Q49.5813,17.9375 49.8469,18.1719 Q50.1125,18.4063 50.1125,18.7813 Q50.1125,19.1719 49.8469,19.4063 Q49.5813,19.6406 48.9719,19.6406 L47.2531,19.6406 Z " fill="#000000"/><text fill="#000000" font-family="sans-serif" font-size="14" font-style="italic" lengthAdjust="spacing" textLength="81" x="65.7" y="28.7969">BagInterface</text><line style="stroke:#181818;stroke-width:0.5;" x1="8" x2="173" y1="39" y2="39"/><line style="stroke:#181818;stroke-width:0.5;" x1="8" x2="173" y1="47" y2="47"/><polygon fill="#4177AF" points="18,57.8105,14,63.8105,22,63.8105" style="stroke:#1963A0;stroke-width:1.0;"/><text fill="#000000" font-family="sans-serif" font-size="14" lengthAdjust="spacing" textLength="123" x="27" y="66.1074">int getCurrentSize()</text><polygon fill="#4177AF" points="18,76.4316,14,82.4316,22,82.4316" style="stroke:#1963A0;stroke-width:1.0;"/><text fill="#000000" font-family="sans-serif" font-size="14" lengthAdjust="spacing" textLength="114" x="27" y="84.7285">boolean isEmpty()</text><polygon fill="#4177AF" points="18,95.0527,14,101.0527,22,101.0527" style="stroke:#1963A0;stroke-width:1.0;"/><text fill="#000000" font-family="sans-serif" font-size="14" lengthAdjust="spacing" textLength="98" x="27" y="103.3496">boolean add(T)</text><polygon fill="#4177AF" points="18,113.6738,14,119.6738,22,119.6738" style="stroke:#1963A0;stroke-width:1.0;"/><text fill="#000000" font-family="sans-serif" font-size="14" lengthAdjust="spacing" textLength="70" x="27" y="121.9707">T remove()</text><polygon fill="#4177AF" points="18,132.2949,14,138.2949,22,138.2949" style="stroke:#1963A0;stroke-width:1.0;"/><text fill="#000000" font-family="sans-serif" font-size="14" lengthAdjust="spacing" textLength="121" x="27" y="140.5918">boolean remove(T)</text><polygon fill="#4177AF" points="18,150.916,14,156.916,22,156.916" style="stroke:#1963A0;stroke-width:1.0;"/><text fill="#000000" font-family="sans-serif" font-size="14" lengthAdjust="spacing" textLength="71" x="27" y="159.2129">void clear()</text><polygon fill="#4177AF" points="18,169.5371,14,175.5371,22,175.5371" style="stroke:#1963A0;stroke-width:1.0;"/><text fill="#000000" font-family="sans-serif" font-size="14" lengthAdjust="spacing" textLength="141" x="27" y="177.834">int getFrequencyOf(T)</text><polygon fill="#4177AF" points="18,188.1582,14,194.1582,22,194.1582" style="stroke:#1963A0;stroke-width:1.0;"/><text fill="#000000" font-family="sans-serif" font-size="14" lengthAdjust="spacing" textLength="127" x="27" y="196.4551">boolean contains(T)</text><polygon fill="#4177AF" points="18,206.7793,14,212.7793,22,212.7793" style="stroke:#1963A0;stroke-width:1.0;"/><text fill="#000000" font-family="sans-serif" font-size="14" lengthAdjust="spacing" textLength="77" x="27" y="215.0762">T[] toArray()</text></g><!--SRC=[LOr13e9G34Jtdg9BF8OQJLova9rnKVylf8cqMWe943sxW5yJblFoPeR5oGeC15iiZ_ymhDx0ub2Ixnep4ZzpJzbwn3VLEw40r_lguTs2OOnPFe4SZ2fjbus4Pg5LZX16RBEIlWv6puOaTAVYg_sgGSMHfKxhbokuRinmkdzz0000]--></g></svg>