<?xml version="1.0" encoding="us-ascii" standalone="no"?><svg xmlns="http://www.w3.org/2000/svg" xmlns:xlink="http://www.w3.org/1999/xlink" contentStyleType="text/css" height="776px" preserveAspectRatio="none" style="width:792px;height:776px;background:#FFFFFF;" version="1.1" viewBox="0 0 792 776" width="792px" zoomAndPan="magnify"><defs/><g><!--class Customer--><g id="elem_Customer"><rect codeLine="1" fill="#F1F1F1" height="755.6016" id="Customer" rx="2.5" ry="2.5" style="stroke:#181818;stroke-width:0.5;" width="771" x="7" y="7"/><ellipse cx="357.75" cy="23" fill="#ADD1B2" rx="11" ry="11" style="stroke:#181818;stroke-width:1.0;"/><path d="M360.5156,18.875 Q360.6719,18.6563 360.8594,18.5469 Q361.0469,18.4375 361.2656,18.4375 Q361.6406,18.4375 361.875,18.7031 Q362.1094,18.9531 362.1094,19.5625 L362.1094,21.0156 Q362.1094,21.625 361.875,21.8906 Q361.6406,22.1563 361.2656,22.1563 Q360.9219,22.1563 360.7188,21.9531 Q360.5156,21.7656 360.4063,21.25 Q360.3594,20.8906 360.1719,20.7031 Q359.8438,20.3281 359.2344,20.1094 Q358.625,19.8906 358,19.8906 Q357.2344,19.8906 356.5938,20.2188 Q355.9688,20.5469 355.4688,21.2969 Q354.9844,22.0469 354.9844,23.0781 L354.9844,24.1719 Q354.9844,25.4063 355.875,26.2344 Q356.7656,27.0469 358.3594,27.0469 Q359.2969,27.0469 359.9531,26.7969 Q360.3438,26.6406 360.7656,26.2031 Q361.0313,25.9375 361.1719,25.8594 Q361.3281,25.7813 361.5313,25.7813 Q361.8594,25.7813 362.1094,26.0469 Q362.375,26.2969 362.375,26.6406 Q362.375,26.9844 362.0313,27.3906 Q361.5313,27.9688 360.7344,28.2969 Q359.6563,28.75 358.3594,28.75 Q356.8438,28.75 355.6406,28.125 Q354.6563,27.625 353.9688,26.5625 Q353.2813,25.4844 353.2813,24.2031 L353.2813,23.0469 Q353.2813,21.7188 353.8906,20.5781 Q354.5156,19.4219 355.6094,18.8125 Q356.7031,18.1875 357.9375,18.1875 Q358.6719,18.1875 359.3125,18.3594 Q359.9688,18.5156 360.5156,18.875 Z " fill="#000000"/><text fill="#000000" font-family="sans-serif" font-size="14" lengthAdjust="spacing" textLength="61" x="378.25" y="28.7969">Customer</text><line style="stroke:#181818;stroke-width:0.5;" x1="8" x2="777" y1="39" y2="39"/><rect fill="none" height="6" style="stroke:#C82930;stroke-width:1.0;" width="6" x="15" y="50.8105"/><text fill="#000000" font-family="sans-serif" font-size="14" lengthAdjust="spacing" textLength="112" x="27" y="58.1074">String customerID</text><rect fill="none" height="6" style="stroke:#C82930;stroke-width:1.0;" width="6" x="15" y="69.4316"/><text fill="#000000" font-family="sans-serif" font-size="14" lengthAdjust="spacing" textLength="100" x="27" y="76.7285">String firstName</text><rect fill="none" height="6" style="stroke:#C82930;stroke-width:1.0;" width="6" x="15" y="88.0527"/><text fill="#000000" font-family="sans-serif" font-size="14" lengthAdjust="spacing" textLength="99" x="27" y="95.3496">String lastName</text><rect fill="none" height="6" style="stroke:#C82930;stroke-width:1.0;" width="6" x="15" y="106.6738"/><text fill="#000000" font-family="sans-serif" font-size="14" lengthAdjust="spacing" textLength="92" x="27" y="113.9707">String address</text><rect fill="none" height="6" style="stroke:#C82930;stroke-width:1.0;" width="6" x="15" y="125.2949"/><text fill="#000000" font-family="sans-serif" font-size="14" lengthAdjust="spacing" textLength="62" x="27" y="132.5918">String city</text><rect fill="none" height="6" style="stroke:#C82930;stroke-width:1.0;" width="6" x="15" y="143.916"/><text fill="#000000" font-family="sans-serif" font-size="14" lengthAdjust="spacing" textLength="72" x="27" y="151.2129">String state</text><rect fill="none" height="6" style="stroke:#C82930;stroke-width:1.0;" width="6" x="15" y="162.5371"/><text fill="#000000" font-family="sans-serif" font-size="14" lengthAdjust="spacing" textLength="58" x="27" y="169.834">String zip</text><rect fill="none" height="6" style="stroke:#C82930;stroke-width:1.0;" width="6" x="15" y="181.1582"/><text fill="#000000" font-family="sans-serif" font-size="14" lengthAdjust="spacing" textLength="81" x="27" y="188.4551">String phone</text><rect fill="none" height="6" style="stroke:#C82930;stroke-width:1.0;" width="6" x="15" y="199.7793"/><text fill="#000000" font-family="sans-serif" font-size="14" lengthAdjust="spacing" textLength="74" x="27" y="207.0762">String email</text><rect fill="none" height="6" style="stroke:#C82930;stroke-width:1.0;" width="6" x="15" y="218.4004"/><text fill="#000000" font-family="sans-serif" font-size="14" lengthAdjust="spacing" textLength="156" x="27" y="225.6973">String creditCardNumber</text><rect fill="none" height="6" style="stroke:#C82930;stroke-width:1.0;" width="6" x="15" y="237.0215"/><text fill="#000000" font-family="sans-serif" font-size="14" lengthAdjust="spacing" textLength="169" x="27" y="244.3184">String creditCardExpiration</text><rect fill="none" height="6" style="stroke:#C82930;stroke-width:1.0;" width="6" x="15" y="255.6426"/><text fill="#000000" font-family="sans-serif" font-size="14" lengthAdjust="spacing" textLength="135" x="27" y="262.9395">String creditCardCVV</text><rect fill="none" height="6" style="stroke:#C82930;stroke-width:1.0;" width="6" x="15" y="274.2637"/><text fill="#000000" font-family="sans-serif" font-size="14" lengthAdjust="spacing" textLength="139" x="27" y="281.5605">String creditCardType</text><rect fill="none" height="6" style="stroke:#C82930;stroke-width:1.0;" width="6" x="15" y="292.8848"/><text fill="#000000" font-family="sans-serif" font-size="14" lengthAdjust="spacing" textLength="143" x="27" y="300.1816">String creditCardName</text><rect fill="none" height="6" style="stroke:#C82930;stroke-width:1.0;" width="6" x="15" y="311.5059"/><text fill="#000000" font-family="sans-serif" font-size="14" lengthAdjust="spacing" textLength="160" x="27" y="318.8027">String creditCardZipCode</text><line style="stroke:#181818;stroke-width:0.5;" x1="8" x2="777" y1="326.3164" y2="326.3164"/><ellipse cx="18" cy="341.127" fill="#84BE84" rx="3" ry="3" style="stroke:#038048;stroke-width:1.0;"/><text fill="#000000" font-family="sans-serif" font-size="14" lengthAdjust="spacing" textLength="499" x="27" y="345.4238">&#171;Create&#187; Customer(String,String,String,String,String,String,String,String,String)</text><ellipse cx="18" cy="359.748" fill="#84BE84" rx="3" ry="3" style="stroke:#038048;stroke-width:1.0;"/><text fill="#000000" font-family="sans-serif" font-size="14" lengthAdjust="spacing" textLength="704" x="27" y="364.0449">&#171;Create&#187; Customer(String,String,String,String,String,String,String,String,String,String,String,String,String,String)</text><ellipse cx="18" cy="378.3691" fill="#84BE84" rx="3" ry="3" style="stroke:#038048;stroke-width:1.0;"/><text fill="#000000" font-family="sans-serif" font-size="14" lengthAdjust="spacing" textLength="745" x="27" y="382.666">&#171;Create&#187; Customer(String,String,String,String,String,String,String,String,String,String,String,String,String,String,String)</text><ellipse cx="18" cy="396.9902" fill="#84BE84" rx="3" ry="3" style="stroke:#038048;stroke-width:1.0;"/><text fill="#000000" font-family="sans-serif" font-size="14" lengthAdjust="spacing" textLength="160" x="27" y="401.2871">void setFirstName(String)</text><ellipse cx="18" cy="415.6113" fill="#84BE84" rx="3" ry="3" style="stroke:#038048;stroke-width:1.0;"/><text fill="#000000" font-family="sans-serif" font-size="14" lengthAdjust="spacing" textLength="159" x="27" y="419.9082">void setLastName(String)</text><ellipse cx="18" cy="434.2324" fill="#84BE84" rx="3" ry="3" style="stroke:#038048;stroke-width:1.0;"/><text fill="#000000" font-family="sans-serif" font-size="14" lengthAdjust="spacing" textLength="148" x="27" y="438.5293">void setAddress(String)</text><ellipse cx="18" cy="452.8535" fill="#84BE84" rx="3" ry="3" style="stroke:#038048;stroke-width:1.0;"/><text fill="#000000" font-family="sans-serif" font-size="14" lengthAdjust="spacing" textLength="120" x="27" y="457.1504">void setCity(String)</text><ellipse cx="18" cy="471.4746" fill="#84BE84" rx="3" ry="3" style="stroke:#038048;stroke-width:1.0;"/><text fill="#000000" font-family="sans-serif" font-size="14" lengthAdjust="spacing" textLength="129" x="27" y="475.7715">void setState(String)</text><ellipse cx="18" cy="490.0957" fill="#84BE84" rx="3" ry="3" style="stroke:#038048;stroke-width:1.0;"/><text fill="#000000" font-family="sans-serif" font-size="14" lengthAdjust="spacing" textLength="115" x="27" y="494.3926">void setZip(String)</text><ellipse cx="18" cy="508.7168" fill="#84BE84" rx="3" ry="3" style="stroke:#038048;stroke-width:1.0;"/><text fill="#000000" font-family="sans-serif" font-size="14" lengthAdjust="spacing" textLength="137" x="27" y="513.0137">void setPhone(String)</text><ellipse cx="18" cy="527.3379" fill="#84BE84" rx="3" ry="3" style="stroke:#038048;stroke-width:1.0;"/><text fill="#000000" font-family="sans-serif" font-size="14" lengthAdjust="spacing" textLength="130" x="27" y="531.6348">void setEmail(String)</text><ellipse cx="18" cy="545.959" fill="#84BE84" rx="3" ry="3" style="stroke:#038048;stroke-width:1.0;"/><text fill="#000000" font-family="sans-serif" font-size="14" lengthAdjust="spacing" textLength="214" x="27" y="550.2559">void setCreditCardNumber(String)</text><ellipse cx="18" cy="564.5801" fill="#84BE84" rx="3" ry="3" style="stroke:#038048;stroke-width:1.0;"/><text fill="#000000" font-family="sans-serif" font-size="14" lengthAdjust="spacing" textLength="227" x="27" y="568.877">void setCreditCardExpiration(String)</text><ellipse cx="18" cy="583.2012" fill="#84BE84" rx="3" ry="3" style="stroke:#038048;stroke-width:1.0;"/><text fill="#000000" font-family="sans-serif" font-size="14" lengthAdjust="spacing" textLength="193" x="27" y="587.498">void setCreditCardCVV(String)</text><ellipse cx="18" cy="601.8223" fill="#84BE84" rx="3" ry="3" style="stroke:#038048;stroke-width:1.0;"/><text fill="#000000" font-family="sans-serif" font-size="14" lengthAdjust="spacing" textLength="197" x="27" y="606.1191">void setCreditCardType(String)</text><ellipse cx="18" cy="620.4434" fill="#84BE84" rx="3" ry="3" style="stroke:#038048;stroke-width:1.0;"/><text fill="#000000" font-family="sans-serif" font-size="14" lengthAdjust="spacing" textLength="201" x="27" y="624.7402">void setCreditCardName(String)</text><ellipse cx="18" cy="639.0645" fill="#84BE84" rx="3" ry="3" style="stroke:#038048;stroke-width:1.0;"/><text fill="#000000" font-family="sans-serif" font-size="14" lengthAdjust="spacing" textLength="218" x="27" y="643.3613">void setCreditCardZipCode(String)</text><ellipse cx="18" cy="657.6855" fill="#84BE84" rx="3" ry="3" style="stroke:#038048;stroke-width:1.0;"/><text fill="#000000" font-family="sans-serif" font-size="14" lengthAdjust="spacing" textLength="145" x="27" y="661.9824">String getCustomerID()</text><ellipse cx="18" cy="676.3066" fill="#84BE84" rx="3" ry="3" style="stroke:#038048;stroke-width:1.0;"/><text fill="#000000" font-family="sans-serif" font-size="14" lengthAdjust="spacing" textLength="107" x="27" y="680.6035">String getName()</text><ellipse cx="18" cy="694.9277" fill="#84BE84" rx="3" ry="3" style="stroke:#038048;stroke-width:1.0;"/><text fill="#000000" font-family="sans-serif" font-size="14" lengthAdjust="spacing" textLength="131" x="27" y="699.2246">String[] getAddress()</text><ellipse cx="18" cy="713.5488" fill="#84BE84" rx="3" ry="3" style="stroke:#038048;stroke-width:1.0;"/><text fill="#000000" font-family="sans-serif" font-size="14" lengthAdjust="spacing" textLength="112" x="27" y="717.8457">String getPhone()</text><ellipse cx="18" cy="732.1699" fill="#84BE84" rx="3" ry="3" style="stroke:#038048;stroke-width:1.0;"/><text fill="#000000" font-family="sans-serif" font-size="14" lengthAdjust="spacing" textLength="105" x="27" y="736.4668">String getEmail()</text><ellipse cx="18" cy="750.791" fill="#84BE84" rx="3" ry="3" style="stroke:#038048;stroke-width:1.0;"/><text fill="#000000" font-family="sans-serif" font-size="14" lengthAdjust="spacing" textLength="100" x="27" y="755.0879">String toString()</text></g><!--SRC=[pPJFIWCn4CRlVOeSLzGtA0M95GGfGgM7YeVOZEr0TnEIgVGFlhk9QPliEkv143pjvlTzEvDCFdQnLjuBkV5aQd3YCBWMKtBOBCNYoEvlCtj3vscYQiWeVDyXIci7tXULa7PvvKbHuTwZpGkxCasXGQrmNTHne96aSdgogL_1SSfuQz4fGjDmgfpDEFoqiy2sQPqhypbQQJGCBiLmA1s4yun6vnbMoNxroyV5drJzpusB_ky6jV10TwUSLT-r1_MZT9EInoWoH931qvX5XeSBPkXZJ2V3np6cNDDENdijERYzjf3WNZr6kNyh_EXaDzo5vvZ_PN2T_mbLM_Ygcj7pIuIdwsXRqnJRB4smO6JIIs0Vdm00]--></g></svg>