<?xml version="1.0" encoding="us-ascii" standalone="no"?><svg xmlns="http://www.w3.org/2000/svg" xmlns:xlink="http://www.w3.org/1999/xlink" contentStyleType="text/css" height="393px" preserveAspectRatio="none" style="width:296px;height:393px;background:#FFFFFF;" version="1.1" viewBox="0 0 296 393" width="296px" zoomAndPan="magnify"><defs/><g><!--class ShoppingBag--><g id="elem_ShoppingBag"><rect codeLine="1" fill="#F1F1F1" height="271.4531" id="ShoppingBag" rx="2.5" ry="2.5" style="stroke:#181818;stroke-width:0.5;" width="282" x="7" y="115"/><ellipse cx="101.25" cy="131" fill="#ADD1B2" rx="11" ry="11" style="stroke:#181818;stroke-width:1.0;"/><path d="M104.0156,126.875 Q104.1719,126.6563 104.3594,126.5469 Q104.5469,126.4375 104.7656,126.4375 Q105.1406,126.4375 105.375,126.7031 Q105.6094,126.9531 105.6094,127.5625 L105.6094,129.0156 Q105.6094,129.625 105.375,129.8906 Q105.1406,130.1563 104.7656,130.1563 Q104.4219,130.1563 104.2188,129.9531 Q104.0156,129.7656 103.9063,129.25 Q103.8594,128.8906 103.6719,128.7031 Q103.3438,128.3281 102.7344,128.1094 Q102.125,127.8906 101.5,127.8906 Q100.7344,127.8906 100.0938,128.2188 Q99.4688,128.5469 98.9688,129.2969 Q98.4844,130.0469 98.4844,131.0781 L98.4844,132.1719 Q98.4844,133.4063 99.375,134.2344 Q100.2656,135.0469 101.8594,135.0469 Q102.7969,135.0469 103.4531,134.7969 Q103.8438,134.6406 104.2656,134.2031 Q104.5313,133.9375 104.6719,133.8594 Q104.8281,133.7813 105.0313,133.7813 Q105.3594,133.7813 105.6094,134.0469 Q105.875,134.2969 105.875,134.6406 Q105.875,134.9844 105.5313,135.3906 Q105.0313,135.9688 104.2344,136.2969 Q103.1563,136.75 101.8594,136.75 Q100.3438,136.75 99.1406,136.125 Q98.1563,135.625 97.4688,134.5625 Q96.7813,133.4844 96.7813,132.2031 L96.7813,131.0469 Q96.7813,129.7188 97.3906,128.5781 Q98.0156,127.4219 99.1094,126.8125 Q100.2031,126.1875 101.4375,126.1875 Q102.1719,126.1875 102.8125,126.3594 Q103.4688,126.5156 104.0156,126.875 Z " fill="#000000"/><text fill="#000000" font-family="sans-serif" font-size="14" lengthAdjust="spacing" textLength="85" x="121.75" y="136.7969">ShoppingBag</text><line style="stroke:#181818;stroke-width:0.5;" x1="8" x2="288" y1="147" y2="147"/><rect fill="none" height="6" style="stroke:#C82930;stroke-width:1.0;" width="6" x="15" y="158.8105"/><text fill="#000000" font-family="sans-serif" font-size="14" lengthAdjust="spacing" textLength="135" x="27" y="166.1074">ArrayList&lt;Item&gt; items</text><line style="stroke:#181818;stroke-width:0.5;" x1="8" x2="288" y1="173.6211" y2="173.6211"/><ellipse cx="18" cy="188.4316" fill="#84BE84" rx="3" ry="3" style="stroke:#038048;stroke-width:1.0;"/><text fill="#000000" font-family="sans-serif" font-size="14" lengthAdjust="spacing" textLength="158" x="27" y="192.7285">&#171;Create&#187; ShoppingBag()</text><ellipse cx="18" cy="207.0527" fill="#84BE84" rx="3" ry="3" style="stroke:#038048;stroke-width:1.0;"/><text fill="#000000" font-family="sans-serif" font-size="14" lengthAdjust="spacing" textLength="256" x="27" y="211.3496">&#171;Create&#187; ShoppingBag(ArrayList&lt;Item&gt;)</text><ellipse cx="18" cy="225.6738" fill="#84BE84" rx="3" ry="3" style="stroke:#038048;stroke-width:1.0;"/><text fill="#000000" font-family="sans-serif" font-size="14" lengthAdjust="spacing" textLength="123" x="27" y="229.9707">int getCurrentSize()</text><ellipse cx="18" cy="244.2949" fill="#84BE84" rx="3" ry="3" style="stroke:#038048;stroke-width:1.0;"/><text fill="#000000" font-family="sans-serif" font-size="14" lengthAdjust="spacing" textLength="114" x="27" y="248.5918">boolean isEmpty()</text><ellipse cx="18" cy="262.916" fill="#84BE84" rx="3" ry="3" style="stroke:#038048;stroke-width:1.0;"/><text fill="#000000" font-family="sans-serif" font-size="14" lengthAdjust="spacing" textLength="115" x="27" y="267.2129">boolean add(Item)</text><ellipse cx="18" cy="281.5371" fill="#84BE84" rx="3" ry="3" style="stroke:#038048;stroke-width:1.0;"/><text fill="#000000" font-family="sans-serif" font-size="14" lengthAdjust="spacing" textLength="87" x="27" y="285.834">Item remove()</text><ellipse cx="18" cy="300.1582" fill="#84BE84" rx="3" ry="3" style="stroke:#038048;stroke-width:1.0;"/><text fill="#000000" font-family="sans-serif" font-size="14" lengthAdjust="spacing" textLength="138" x="27" y="304.4551">boolean remove(Item)</text><ellipse cx="18" cy="318.7793" fill="#84BE84" rx="3" ry="3" style="stroke:#038048;stroke-width:1.0;"/><text fill="#000000" font-family="sans-serif" font-size="14" lengthAdjust="spacing" textLength="71" x="27" y="323.0762">void clear()</text><ellipse cx="18" cy="337.4004" fill="#84BE84" rx="3" ry="3" style="stroke:#038048;stroke-width:1.0;"/><text fill="#000000" font-family="sans-serif" font-size="14" lengthAdjust="spacing" textLength="158" x="27" y="341.6973">int getFrequencyOf(Item)</text><ellipse cx="18" cy="356.0215" fill="#84BE84" rx="3" ry="3" style="stroke:#038048;stroke-width:1.0;"/><text fill="#000000" font-family="sans-serif" font-size="14" lengthAdjust="spacing" textLength="144" x="27" y="360.3184">boolean contains(Item)</text><ellipse cx="18" cy="374.6426" fill="#84BE84" rx="3" ry="3" style="stroke:#038048;stroke-width:1.0;"/><text fill="#000000" font-family="sans-serif" font-size="14" lengthAdjust="spacing" textLength="94" x="27" y="378.9395">Item[] toArray()</text></g><!--class BagInterface--><g id="elem_BagInterface"><rect fill="#F1F1F1" height="48" id="BagInterface" rx="2.5" ry="2.5" style="stroke:#181818;stroke-width:0.5;" width="112" x="92" y="7"/><ellipse cx="107" cy="23" fill="#ADD1B2" rx="11" ry="11" style="stroke:#181818;stroke-width:1.0;"/><path d="M109.7656,18.875 Q109.9219,18.6563 110.1094,18.5469 Q110.2969,18.4375 110.5156,18.4375 Q110.8906,18.4375 111.125,18.7031 Q111.3594,18.9531 111.3594,19.5625 L111.3594,21.0156 Q111.3594,21.625 111.125,21.8906 Q110.8906,22.1563 110.5156,22.1563 Q110.1719,22.1563 109.9688,21.9531 Q109.7656,21.7656 109.6563,21.25 Q109.6094,20.8906 109.4219,20.7031 Q109.0938,20.3281 108.4844,20.1094 Q107.875,19.8906 107.25,19.8906 Q106.4844,19.8906 105.8438,20.2188 Q105.2188,20.5469 104.7188,21.2969 Q104.2344,22.0469 104.2344,23.0781 L104.2344,24.1719 Q104.2344,25.4063 105.125,26.2344 Q106.0156,27.0469 107.6094,27.0469 Q108.5469,27.0469 109.2031,26.7969 Q109.5938,26.6406 110.0156,26.2031 Q110.2813,25.9375 110.4219,25.8594 Q110.5781,25.7813 110.7813,25.7813 Q111.1094,25.7813 111.3594,26.0469 Q111.625,26.2969 111.625,26.6406 Q111.625,26.9844 111.2813,27.3906 Q110.7813,27.9688 109.9844,28.2969 Q108.9063,28.75 107.6094,28.75 Q106.0938,28.75 104.8906,28.125 Q103.9063,27.625 103.2188,26.5625 Q102.5313,25.4844 102.5313,24.2031 L102.5313,23.0469 Q102.5313,21.7188 103.1406,20.5781 Q103.7656,19.4219 104.8594,18.8125 Q105.9531,18.1875 107.1875,18.1875 Q107.9219,18.1875 108.5625,18.3594 Q109.2188,18.5156 109.7656,18.875 Z " fill="#000000"/><text fill="#000000" font-family="sans-serif" font-size="14" lengthAdjust="spacing" textLength="80" x="121" y="28.7969">BagInterface</text><line style="stroke:#181818;stroke-width:0.5;" x1="93" x2="203" y1="39" y2="39"/><line style="stroke:#181818;stroke-width:0.5;" x1="93" x2="203" y1="47" y2="47"/></g><!--reverse link BagInterface to ShoppingBag--><g id="link_BagInterface_ShoppingBag"><path codeLine="17" d="M148,75.63 C148,87.38 148,100.74 148,114.7 " fill="none" id="BagInterface-backto-ShoppingBag" style="stroke:#181818;stroke-width:1.0;stroke-dasharray:7.0,7.0;"/><polygon fill="none" points="141,75.28,148,55.28,155,75.28,141,75.28" style="stroke:#181818;stroke-width:1.0;"/></g><!--SRC=[TK_D2e904BxlKypHY7o2HIWf288E7gF3jewseBisEmhsy-wfP6ZGPGQ-NpvTAEyXkRggCZRVg1mUOWLh8jKUZ6UvPomZCDtrOWbIneIACOgcbc3nd_f9wfN6CkJ8SKs4bXDpno7Wubo1oeBnsxBYTeQfD0rwVu_r7mXBrynz7sYKDSwae3k6WadfZl1MezNjCVignm3jB2jZ_QpfT0PsmuWkvYM4w4RjBIDbIYF8PnXEvxu1]--></g></svg>