<?xml version="1.0" encoding="us-ascii" standalone="no"?><svg xmlns="http://www.w3.org/2000/svg" xmlns:xlink="http://www.w3.org/1999/xlink" contentStyleType="text/css" height="515px" preserveAspectRatio="none" style="width:541px;height:515px;background:#FFFFFF;" version="1.1" viewBox="0 0 541 515" width="541px" zoomAndPan="magnify"><defs/><g><!--class ShoppingCartItem--><g id="elem_ShoppingCartItem"><rect codeLine="1" fill="#F1F1F1" height="494.9063" id="ShoppingCartItem" rx="2.5" ry="2.5" style="stroke:#181818;stroke-width:0.5;" width="520" x="7" y="7"/><ellipse cx="206.25" cy="23" fill="#ADD1B2" rx="11" ry="11" style="stroke:#181818;stroke-width:1.0;"/><path d="M209.0156,18.875 Q209.1719,18.6563 209.3594,18.5469 Q209.5469,18.4375 209.7656,18.4375 Q210.1406,18.4375 210.375,18.7031 Q210.6094,18.9531 210.6094,19.5625 L210.6094,21.0156 Q210.6094,21.625 210.375,21.8906 Q210.1406,22.1563 209.7656,22.1563 Q209.4219,22.1563 209.2188,21.9531 Q209.0156,21.7656 208.9063,21.25 Q208.8594,20.8906 208.6719,20.7031 Q208.3438,20.3281 207.7344,20.1094 Q207.125,19.8906 206.5,19.8906 Q205.7344,19.8906 205.0938,20.2188 Q204.4688,20.5469 203.9688,21.2969 Q203.4844,22.0469 203.4844,23.0781 L203.4844,24.1719 Q203.4844,25.4063 204.375,26.2344 Q205.2656,27.0469 206.8594,27.0469 Q207.7969,27.0469 208.4531,26.7969 Q208.8438,26.6406 209.2656,26.2031 Q209.5313,25.9375 209.6719,25.8594 Q209.8281,25.7813 210.0313,25.7813 Q210.3594,25.7813 210.6094,26.0469 Q210.875,26.2969 210.875,26.6406 Q210.875,26.9844 210.5313,27.3906 Q210.0313,27.9688 209.2344,28.2969 Q208.1563,28.75 206.8594,28.75 Q205.3438,28.75 204.1406,28.125 Q203.1563,27.625 202.4688,26.5625 Q201.7813,25.4844 201.7813,24.2031 L201.7813,23.0469 Q201.7813,21.7188 202.3906,20.5781 Q203.0156,19.4219 204.1094,18.8125 Q205.2031,18.1875 206.4375,18.1875 Q207.1719,18.1875 207.8125,18.3594 Q208.4688,18.5156 209.0156,18.875 Z " fill="#000000"/><text fill="#000000" font-family="sans-serif" font-size="14" lengthAdjust="spacing" textLength="113" x="226.75" y="28.7969">ShoppingCartItem</text><line style="stroke:#181818;stroke-width:0.5;" x1="8" x2="526" y1="39" y2="39"/><rect fill="none" height="6" style="stroke:#C82930;stroke-width:1.0;" width="6" x="15" y="50.8105"/><text fill="#000000" font-family="sans-serif" font-size="14" lengthAdjust="spacing" textLength="64" x="27" y="58.1074">String upc</text><rect fill="none" height="6" style="stroke:#C82930;stroke-width:1.0;" width="6" x="15" y="69.4316"/><text fill="#000000" font-family="sans-serif" font-size="14" lengthAdjust="spacing" textLength="125" x="27" y="76.7285">String productName</text><rect fill="none" height="6" style="stroke:#C82930;stroke-width:1.0;" width="6" x="15" y="88.0527"/><text fill="#000000" font-family="sans-serif" font-size="14" lengthAdjust="spacing" textLength="105" x="27" y="95.3496">BigDecimal price</text><rect fill="none" height="6" style="stroke:#C82930;stroke-width:1.0;" width="6" x="15" y="106.6738"/><text fill="#000000" font-family="sans-serif" font-size="14" lengthAdjust="spacing" textLength="110" x="27" y="113.9707">String description</text><rect fill="none" height="6" style="stroke:#C82930;stroke-width:1.0;" width="6" x="15" y="125.2949"/><text fill="#000000" font-family="sans-serif" font-size="14" lengthAdjust="spacing" textLength="69" x="27" y="132.5918">int quantity</text><rect fill="none" height="6" style="stroke:#C82930;stroke-width:1.0;" width="6" x="15" y="143.916"/><text fill="#000000" font-family="sans-serif" font-size="14" lengthAdjust="spacing" textLength="101" x="27" y="151.2129">boolean inStock</text><rect fill="none" height="6" style="stroke:#C82930;stroke-width:1.0;" width="6" x="15" y="162.5371"/><text fill="#000000" font-family="sans-serif" font-size="14" lengthAdjust="spacing" textLength="106" x="27" y="169.834">String imageURL</text><line style="stroke:#181818;stroke-width:0.5;" x1="8" x2="526" y1="177.3477" y2="177.3477"/><ellipse cx="18" cy="192.1582" fill="#84BE84" rx="3" ry="3" style="stroke:#038048;stroke-width:1.0;"/><text fill="#000000" font-family="sans-serif" font-size="14" lengthAdjust="spacing" textLength="494" x="27" y="196.4551">&#171;Create&#187; ShoppingCartItem(String,String,BigDecimal,String,int,boolean,String)</text><ellipse cx="18" cy="210.7793" fill="#84BE84" rx="3" ry="3" style="stroke:#038048;stroke-width:1.0;"/><text fill="#000000" font-family="sans-serif" font-size="14" lengthAdjust="spacing" textLength="95" x="27" y="215.0762">String getUpc()</text><ellipse cx="18" cy="229.4004" fill="#84BE84" rx="3" ry="3" style="stroke:#038048;stroke-width:1.0;"/><text fill="#000000" font-family="sans-serif" font-size="14" lengthAdjust="spacing" textLength="156" x="27" y="233.6973">String getProductName()</text><ellipse cx="18" cy="248.0215" fill="#84BE84" rx="3" ry="3" style="stroke:#038048;stroke-width:1.0;"/><text fill="#000000" font-family="sans-serif" font-size="14" lengthAdjust="spacing" textLength="136" x="27" y="252.3184">BigDecimal getPrice()</text><ellipse cx="18" cy="266.6426" fill="#84BE84" rx="3" ry="3" style="stroke:#038048;stroke-width:1.0;"/><text fill="#000000" font-family="sans-serif" font-size="14" lengthAdjust="spacing" textLength="142" x="27" y="270.9395">String getDescription()</text><ellipse cx="18" cy="285.2637" fill="#84BE84" rx="3" ry="3" style="stroke:#038048;stroke-width:1.0;"/><text fill="#000000" font-family="sans-serif" font-size="14" lengthAdjust="spacing" textLength="102" x="27" y="289.5605">int getQuantity()</text><ellipse cx="18" cy="303.8848" fill="#84BE84" rx="3" ry="3" style="stroke:#038048;stroke-width:1.0;"/><text fill="#000000" font-family="sans-serif" font-size="14" lengthAdjust="spacing" textLength="121" x="27" y="308.1816">boolean isInStock()</text><ellipse cx="18" cy="322.5059" fill="#84BE84" rx="3" ry="3" style="stroke:#038048;stroke-width:1.0;"/><text fill="#000000" font-family="sans-serif" font-size="14" lengthAdjust="spacing" textLength="136" x="27" y="326.8027">String getImageURL()</text><ellipse cx="18" cy="341.127" fill="#84BE84" rx="3" ry="3" style="stroke:#038048;stroke-width:1.0;"/><text fill="#000000" font-family="sans-serif" font-size="14" lengthAdjust="spacing" textLength="120" x="27" y="345.4238">void setUpc(String)</text><ellipse cx="18" cy="359.748" fill="#84BE84" rx="3" ry="3" style="stroke:#038048;stroke-width:1.0;"/><text fill="#000000" font-family="sans-serif" font-size="14" lengthAdjust="spacing" textLength="181" x="27" y="364.0449">void setProductName(String)</text><ellipse cx="18" cy="378.3691" fill="#84BE84" rx="3" ry="3" style="stroke:#038048;stroke-width:1.0;"/><text fill="#000000" font-family="sans-serif" font-size="14" lengthAdjust="spacing" textLength="167" x="27" y="382.666">void setDescription(String)</text><ellipse cx="18" cy="396.9902" fill="#84BE84" rx="3" ry="3" style="stroke:#038048;stroke-width:1.0;"/><text fill="#000000" font-family="sans-serif" font-size="14" lengthAdjust="spacing" textLength="127" x="27" y="401.2871">void setQuantity(int)</text><ellipse cx="18" cy="415.6113" fill="#84BE84" rx="3" ry="3" style="stroke:#038048;stroke-width:1.0;"/><text fill="#000000" font-family="sans-serif" font-size="14" lengthAdjust="spacing" textLength="156" x="27" y="419.9082">void setInStock(boolean)</text><ellipse cx="18" cy="434.2324" fill="#84BE84" rx="3" ry="3" style="stroke:#038048;stroke-width:1.0;"/><text fill="#000000" font-family="sans-serif" font-size="14" lengthAdjust="spacing" textLength="161" x="27" y="438.5293">void setImageURL(String)</text><ellipse cx="18" cy="452.8535" fill="#84BE84" rx="3" ry="3" style="stroke:#038048;stroke-width:1.0;"/><text fill="#000000" font-family="sans-serif" font-size="14" lengthAdjust="spacing" textLength="136" x="27" y="457.1504">BigDecimal getTotal()</text><ellipse cx="18" cy="471.4746" fill="#84BE84" rx="3" ry="3" style="stroke:#038048;stroke-width:1.0;"/><text fill="#000000" font-family="sans-serif" font-size="14" lengthAdjust="spacing" textLength="220" x="27" y="475.7715">boolean equals(ShoppingCartItem)</text><ellipse cx="18" cy="490.0957" fill="#84BE84" rx="3" ry="3" style="stroke:#038048;stroke-width:1.0;"/><text fill="#000000" font-family="sans-serif" font-size="14" lengthAdjust="spacing" textLength="100" x="27" y="494.3926">String toString()</text></g><!--SRC=[PP51RiCW44NtEGLBLqrl46NHP6EfgjguEG358tTK30J6bQegTyyKuu3j5V0-C_C_A2r34CsNTGvDTv2UQe9U_6sUH4EUaHYSoWVdRJieUfKzC7p6xWWAUwbPG0NvNWj1UNI4rZ14G-8oI4D8ltpyj5Q3D8mRikexLt6d3iwdbysZsEqE7YJ1VhyoLustjsd99YR2uxPfHa8Ft37Dw83EJbLpyfPZHQK85bNEjgWuve1H-O_8-3sbZEoUCzHZqaMFEiMD-CTYAy9eBfkUQ6bmhPPcrkhT4tii-MGgsPn9axFSRVua7vQadeK4_c0TgkLd5Od9ZXikkzu0]--></g></svg>