<?xml version="1.0" encoding="us-ascii" standalone="no"?><svg xmlns="http://www.w3.org/2000/svg" xmlns:xlink="http://www.w3.org/1999/xlink" contentStyleType="text/css" height="393px" preserveAspectRatio="none" style="width:410px;height:393px;background:#FFFFFF;" version="1.1" viewBox="0 0 410 393" width="410px" zoomAndPan="magnify"><defs/><g><!--class ShoppingCartBag--><g id="elem_ShoppingCartBag"><rect codeLine="1" fill="#F1F1F1" height="271.4531" id="ShoppingCartBag" rx="2.5" ry="2.5" style="stroke:#181818;stroke-width:0.5;" width="396" x="7" y="115"/><ellipse cx="144.75" cy="131" fill="#ADD1B2" rx="11" ry="11" style="stroke:#181818;stroke-width:1.0;"/><path d="M147.5156,126.875 Q147.6719,126.6563 147.8594,126.5469 Q148.0469,126.4375 148.2656,126.4375 Q148.6406,126.4375 148.875,126.7031 Q149.1094,126.9531 149.1094,127.5625 L149.1094,129.0156 Q149.1094,129.625 148.875,129.8906 Q148.6406,130.1563 148.2656,130.1563 Q147.9219,130.1563 147.7188,129.9531 Q147.5156,129.7656 147.4063,129.25 Q147.3594,128.8906 147.1719,128.7031 Q146.8438,128.3281 146.2344,128.1094 Q145.625,127.8906 145,127.8906 Q144.2344,127.8906 143.5938,128.2188 Q142.9688,128.5469 142.4688,129.2969 Q141.9844,130.0469 141.9844,131.0781 L141.9844,132.1719 Q141.9844,133.4063 142.875,134.2344 Q143.7656,135.0469 145.3594,135.0469 Q146.2969,135.0469 146.9531,134.7969 Q147.3438,134.6406 147.7656,134.2031 Q148.0313,133.9375 148.1719,133.8594 Q148.3281,133.7813 148.5313,133.7813 Q148.8594,133.7813 149.1094,134.0469 Q149.375,134.2969 149.375,134.6406 Q149.375,134.9844 149.0313,135.3906 Q148.5313,135.9688 147.7344,136.2969 Q146.6563,136.75 145.3594,136.75 Q143.8438,136.75 142.6406,136.125 Q141.6563,135.625 140.9688,134.5625 Q140.2813,133.4844 140.2813,132.2031 L140.2813,131.0469 Q140.2813,129.7188 140.8906,128.5781 Q141.5156,127.4219 142.6094,126.8125 Q143.7031,126.1875 144.9375,126.1875 Q145.6719,126.1875 146.3125,126.3594 Q146.9688,126.5156 147.5156,126.875 Z " fill="#000000"/><text fill="#000000" font-family="sans-serif" font-size="14" lengthAdjust="spacing" textLength="112" x="165.25" y="136.7969">ShoppingCartBag</text><line style="stroke:#181818;stroke-width:0.5;" x1="8" x2="402" y1="147" y2="147"/><rect fill="none" height="6" style="stroke:#C82930;stroke-width:1.0;" width="6" x="15" y="158.8105"/><text fill="#000000" font-family="sans-serif" font-size="14" lengthAdjust="spacing" textLength="222" x="27" y="166.1074">ArrayList&lt;ShoppingCartItem&gt; items</text><line style="stroke:#181818;stroke-width:0.5;" x1="8" x2="402" y1="173.6211" y2="173.6211"/><ellipse cx="18" cy="188.4316" fill="#84BE84" rx="3" ry="3" style="stroke:#038048;stroke-width:1.0;"/><text fill="#000000" font-family="sans-serif" font-size="14" lengthAdjust="spacing" textLength="185" x="27" y="192.7285">&#171;Create&#187; ShoppingCartBag()</text><ellipse cx="18" cy="207.0527" fill="#84BE84" rx="3" ry="3" style="stroke:#038048;stroke-width:1.0;"/><text fill="#000000" font-family="sans-serif" font-size="14" lengthAdjust="spacing" textLength="370" x="27" y="211.3496">&#171;Create&#187; ShoppingCartBag(ArrayList&lt;ShoppingCartItem&gt;)</text><ellipse cx="18" cy="225.6738" fill="#84BE84" rx="3" ry="3" style="stroke:#038048;stroke-width:1.0;"/><text fill="#000000" font-family="sans-serif" font-size="14" lengthAdjust="spacing" textLength="123" x="27" y="229.9707">int getCurrentSize()</text><ellipse cx="18" cy="244.2949" fill="#84BE84" rx="3" ry="3" style="stroke:#038048;stroke-width:1.0;"/><text fill="#000000" font-family="sans-serif" font-size="14" lengthAdjust="spacing" textLength="114" x="27" y="248.5918">boolean isEmpty()</text><ellipse cx="18" cy="262.916" fill="#84BE84" rx="3" ry="3" style="stroke:#038048;stroke-width:1.0;"/><text fill="#000000" font-family="sans-serif" font-size="14" lengthAdjust="spacing" textLength="202" x="27" y="267.2129">boolean add(ShoppingCartItem)</text><ellipse cx="18" cy="281.5371" fill="#84BE84" rx="3" ry="3" style="stroke:#038048;stroke-width:1.0;"/><text fill="#000000" font-family="sans-serif" font-size="14" lengthAdjust="spacing" textLength="174" x="27" y="285.834">ShoppingCartItem remove()</text><ellipse cx="18" cy="300.1582" fill="#84BE84" rx="3" ry="3" style="stroke:#038048;stroke-width:1.0;"/><text fill="#000000" font-family="sans-serif" font-size="14" lengthAdjust="spacing" textLength="225" x="27" y="304.4551">boolean remove(ShoppingCartItem)</text><ellipse cx="18" cy="318.7793" fill="#84BE84" rx="3" ry="3" style="stroke:#038048;stroke-width:1.0;"/><text fill="#000000" font-family="sans-serif" font-size="14" lengthAdjust="spacing" textLength="71" x="27" y="323.0762">void clear()</text><ellipse cx="18" cy="337.4004" fill="#84BE84" rx="3" ry="3" style="stroke:#038048;stroke-width:1.0;"/><text fill="#000000" font-family="sans-serif" font-size="14" lengthAdjust="spacing" textLength="245" x="27" y="341.6973">int getFrequencyOf(ShoppingCartItem)</text><ellipse cx="18" cy="356.0215" fill="#84BE84" rx="3" ry="3" style="stroke:#038048;stroke-width:1.0;"/><text fill="#000000" font-family="sans-serif" font-size="14" lengthAdjust="spacing" textLength="231" x="27" y="360.3184">boolean contains(ShoppingCartItem)</text><ellipse cx="18" cy="374.6426" fill="#84BE84" rx="3" ry="3" style="stroke:#038048;stroke-width:1.0;"/><text fill="#000000" font-family="sans-serif" font-size="14" lengthAdjust="spacing" textLength="181" x="27" y="378.9395">ShoppingCartItem[] toArray()</text></g><!--class BagInterface--><g id="elem_BagInterface"><rect fill="#F1F1F1" height="48" id="BagInterface" rx="2.5" ry="2.5" style="stroke:#181818;stroke-width:0.5;" width="112" x="149" y="7"/><ellipse cx="164" cy="23" fill="#ADD1B2" rx="11" ry="11" style="stroke:#181818;stroke-width:1.0;"/><path d="M166.7656,18.875 Q166.9219,18.6563 167.1094,18.5469 Q167.2969,18.4375 167.5156,18.4375 Q167.8906,18.4375 168.125,18.7031 Q168.3594,18.9531 168.3594,19.5625 L168.3594,21.0156 Q168.3594,21.625 168.125,21.8906 Q167.8906,22.1563 167.5156,22.1563 Q167.1719,22.1563 166.9688,21.9531 Q166.7656,21.7656 166.6563,21.25 Q166.6094,20.8906 166.4219,20.7031 Q166.0938,20.3281 165.4844,20.1094 Q164.875,19.8906 164.25,19.8906 Q163.4844,19.8906 162.8438,20.2188 Q162.2188,20.5469 161.7188,21.2969 Q161.2344,22.0469 161.2344,23.0781 L161.2344,24.1719 Q161.2344,25.4063 162.125,26.2344 Q163.0156,27.0469 164.6094,27.0469 Q165.5469,27.0469 166.2031,26.7969 Q166.5938,26.6406 167.0156,26.2031 Q167.2813,25.9375 167.4219,25.8594 Q167.5781,25.7813 167.7813,25.7813 Q168.1094,25.7813 168.3594,26.0469 Q168.625,26.2969 168.625,26.6406 Q168.625,26.9844 168.2813,27.3906 Q167.7813,27.9688 166.9844,28.2969 Q165.9063,28.75 164.6094,28.75 Q163.0938,28.75 161.8906,28.125 Q160.9063,27.625 160.2188,26.5625 Q159.5313,25.4844 159.5313,24.2031 L159.5313,23.0469 Q159.5313,21.7188 160.1406,20.5781 Q160.7656,19.4219 161.8594,18.8125 Q162.9531,18.1875 164.1875,18.1875 Q164.9219,18.1875 165.5625,18.3594 Q166.2188,18.5156 166.7656,18.875 Z " fill="#000000"/><text fill="#000000" font-family="sans-serif" font-size="14" lengthAdjust="spacing" textLength="80" x="178" y="28.7969">BagInterface</text><line style="stroke:#181818;stroke-width:0.5;" x1="150" x2="260" y1="39" y2="39"/><line style="stroke:#181818;stroke-width:0.5;" x1="150" x2="260" y1="47" y2="47"/></g><!--reverse link BagInterface to ShoppingCartBag--><g id="link_BagInterface_ShoppingCartBag"><path codeLine="17" d="M205,75.63 C205,87.38 205,100.74 205,114.7 " fill="none" id="BagInterface-backto-ShoppingCartBag" style="stroke:#181818;stroke-width:1.0;stroke-dasharray:7.0,7.0;"/><polygon fill="none" points="198,75.28,205,55.28,212,75.28,198,75.28" style="stroke:#181818;stroke-width:1.0;"/></g><!--SRC=[ZP3D2i9038Jl-nGvLaIVe1IqA0Y2Xnx5Gzp6kc1tQpOjr9ztToiAjOXuoM4cyoMCFg7ta1rTLHbRfCWonmAkQW8pPcpNnalSTrT2PG8cJA_64CSf4meboH0HZNxRF-XTqbY1WYIjcSbAPYxq1EwTEn5QC7vHLj9-Q9ZdqP3L-KCDc4hNVF9UqhTuuqmEEcnnr7jioNIkoUfsS_YQUeEriuB6-hy-s-v0tBEOSEgkb0f5hQmG7r0JnBVfT5ZZ0m00]--></g></svg>